<?xml version="1.0" encoding="UTF-8"?>
<svg width="512" height="512" version="1.1" viewBox="0 0 512 512" xml:space="preserve" xmlns="http://www.w3.org/2000/svg">
<g stroke-width=".875">
<path fill="#C2C7CC" d="m226.32 219.6 3.404-20.773-86.235-62.145 61.971 86.323z"/>
<path fill="#C2C7CC" d="m298.59 219.6 20.773 3.404 62.145-86.323-86.323 62.145z"/>
<path fill="#C2C7CC" d="m298.59 291.96-3.404 20.773 86.323 61.971-62.145-86.235z"/>
<path fill="#C2C7CC" d="m226.32 291.96-20.773-3.404-61.971 86.235 86.235-61.971z"/>
<path fill="#C2C7CC" d="m418.17 239.07c-3.5786-33.604-17.893-64.153-39.277-87.894l-7.2445 10.038c18.242 20.861 30.374 47.045 34.128 75.936z"/>
<path fill="#C2C7CC" d="m405.69 274.5c-3.6659 28.803-15.885 54.988-34.128 75.936l7.2445 10.038c21.384-23.828 35.699-54.377 39.277-87.894z"/>
<path fill="#C2C7CC" d="m281.14 112.51c28.803 3.6659 54.988 15.885 75.936 34.128l10.038-7.2445c-23.828-21.384-54.377-35.699-87.894-39.277z"/>
<path fill="#C2C7CC" d="m243.69 112.51 2.0075-12.394c-33.604 3.5786-64.153 17.893-87.894 39.277l10.038 7.2445c20.861-18.242 47.045-30.462 75.849-34.128z"/>
<path fill="#C2C7CC" d="m119.14 237.06c3.6659-28.803 15.973-54.988 34.128-75.936l-7.2445-10.038c-21.384 23.828-35.699 54.377-39.277 87.894z"/>
<path fill="#C2C7CC" d="m106.75 272.5c3.5786 33.604 17.893 64.153 39.277 87.894l7.2445-10.038c-18.155-20.861-30.374-47.045-34.128-75.936z"/>
<path fill="#C2C7CC" d="m243.69 399.06c-28.803-3.6659-54.988-15.973-75.936-34.128l-10.038 7.2445c23.828 21.384 54.377 35.699 87.894 39.277z"/>
<path fill="#C2C7CC" d="m281.14 399.06-2.0075 12.394c33.604-3.5786 64.153-17.893 87.894-39.277l-10.038-7.2445c-20.861 18.068-47.045 30.374-75.849 34.128z"/>
<path fill="#C2C7CC" d="m293.18 225.01-30.636-188.44-30.636 188.44-188.53 30.636 188.53 30.636 30.636 188.53 30.636-188.53 188.44-30.636zm-38.23 23.304h-118.7l102.12-16.671 16.671-102.12v118.79zm31.596 31.596-16.671 102.12v-118.7h118.88z"/>
<path fill="#C2C7CC" d="m226.32 219.6 3.404-20.773-86.235-62.145 61.971 86.323z"/>
<path fill="#C2C7CC" d="m298.59 219.6 20.773 3.404 62.145-86.323-86.323 62.145z"/>
<path fill="#C2C7CC" d="m298.59 291.96-3.404 20.773 86.323 61.971-62.145-86.235z"/>
<path fill="#C2C7CC" d="m226.32 291.96-20.773-3.404-61.971 86.235 86.235-61.971z"/>
<path fill="#C2C7CC" d="m275.11 24.788h-5.0624l-10.038-16.758-0.17457 0.17457v16.671h-4.8878v-24.876h4.8878l10.038 16.758h0.17456v-16.758h5.0624z"/>
<path fill="#C2C7CC" d="m32.731 260.19h0.17456l3.3167-16.758h5.1497l-5.8479 24.701h-4.626l-4.5387-16.235h-0.17457l-4.626 16.235h-4.626l-5.6734-24.701h5.0624l3.3167 16.758h0.17456l4.5387-16.758h3.9277z"/>
<path fill="#C2C7CC" d="m266.91 505.1c0-0.96011-0.43642-1.7457-1.0474-2.2694-0.69827-0.69826-1.8329-1.222-3.404-1.7456-2.8803-0.78555-5.0624-1.8329-6.6335-3.0549-1.4838-1.222-2.0948-2.793-2.0948-4.8005s0.78554-3.6659 2.5312-5.0624c1.5711-1.3092 3.6659-1.8329 6.3716-1.8329 2.793 0 5.0624 0.69826 6.6335 2.0075 1.7456 1.4838 2.5312 3.3167 2.5312 5.5861h-0.17457-4.8005c0-1.222-0.43642-2.0948-1.222-2.793-0.69826-0.69826-1.7456-1.0474-3.1422-1.0474-1.222 0-2.0948 0.26185-2.793 0.96011-0.69826 0.5237-1.0474 1.3092-1.0474 2.2694 0 0.78554 0.43641 1.5711 1.222 2.0948 0.69826 0.5237 2.0075 1.0474 3.6659 1.7457 2.793 0.78554 4.8006 1.7456 6.1971 3.0549 1.4838 1.222 2.2694 2.793 2.2694 4.8878 0 2.0948-0.96011 3.8404-2.5312 5.0624-1.7456 1.222-3.8404 1.8329-6.6335 1.8329-2.6185 0-5.0624-0.69827-6.8953-2.0075-2.0075-1.3092-2.8803-3.3168-2.793-5.9352v-0.17457h4.8878c0 1.4838 0.43641 2.5312 1.222 3.1422 0.9601 0.78554 2.0948 1.0474 3.5786 1.0474 1.3092 0 2.3566-0.26185 3.0549-0.78555 0.61097-0.52369 1.0474-1.3092 1.0474-2.1821z"/>
<path fill="#C2C7CC" d="m499.08 257.31h-9.1647v6.9826h10.823v3.8404h-15.885v-24.701h15.885v3.8404h-10.823v6.1971h9.1647z"/>
</g></svg>
