<?xml version="1.0" encoding="UTF-8"?>
<!-- Generator: Adobe Illustrator 22.0.1, SVG Export Plug-In . SVG Version: 6.00 Build 0)  -->
<svg enable-background="new 0 0 30 30" version="1.1" viewBox="0 0 30 30" xml:space="preserve" xmlns="http://www.w3.org/2000/svg"><g fill="#1f74ff">
<path d="m16.88 21.18c0-0.24 0.08-0.43 0.23-0.59s0.35-0.23 0.59-0.23 0.43 0.08 0.59 0.23c0.16 0.16 0.23 0.35 0.23 0.59 0 0.23-0.08 0.42-0.23 0.58-0.16 0.16-0.35 0.23-0.59 0.23s-0.43-0.08-0.58-0.24c-0.15-0.15-0.24-0.34-0.24-0.57z"/><path d="m16.14 24.12c0-0.03 0-0.08 0.01-0.13s0.01-0.09 0.01-0.11l0.09-0.59c0.07-0.24 0.2-0.41 0.41-0.53s0.43-0.14 0.68-0.08c0.23 0.07 0.4 0.21 0.51 0.41 0.12 0.21 0.14 0.42 0.07 0.63l-0.14 0.6c-0.1 0.44-0.35 0.66-0.76 0.66-0.03 0-0.08-0.01-0.14-0.02s-0.11-0.02-0.14-0.02c-0.2-0.06-0.35-0.17-0.45-0.33s-0.15-0.32-0.15-0.49z"/><path d="m13.38 21.98c0-0.09 0.01-0.18 0.03-0.27l0.23-0.9c0.07-0.23 0.21-0.41 0.41-0.53 0.21-0.12 0.42-0.15 0.64-0.08 0.24 0.07 0.41 0.2 0.53 0.4s0.14 0.41 0.07 0.63l-0.26 0.9c-0.08 0.28-0.22 0.46-0.41 0.56s-0.41 0.12-0.64 0.06c-0.2-0.04-0.35-0.14-0.45-0.3-0.12-0.16-0.16-0.32-0.15-0.47z"/><path d="m12.76 24.25c0-0.23 0.08-0.42 0.23-0.58 0.16-0.16 0.35-0.23 0.59-0.23s0.43 0.08 0.59 0.23c0.16 0.16 0.23 0.35 0.23 0.58 0 0.24-0.08 0.43-0.23 0.59-0.16 0.16-0.35 0.23-0.59 0.23-0.23 0-0.42-0.08-0.58-0.24s-0.24-0.35-0.24-0.58z"/><path d="m11.97 27.16c0-0.04 0.01-0.11 0.04-0.22l0.13-0.59c0.07-0.23 0.21-0.4 0.41-0.51 0.21-0.12 0.42-0.14 0.63-0.07 0.23 0.04 0.41 0.17 0.53 0.37s0.15 0.43 0.08 0.68l-0.13 0.59c-0.1 0.41-0.37 0.61-0.8 0.61-0.07 0-0.16-0.01-0.24-0.03-0.22-0.06-0.38-0.17-0.49-0.33-0.1-0.17-0.16-0.33-0.16-0.5z"/><path d="m10.33 21.16c0-0.24 0.08-0.43 0.23-0.59s0.35-0.23 0.59-0.23 0.43 0.08 0.59 0.23 0.23 0.35 0.23 0.59c0 0.23-0.08 0.43-0.23 0.58s-0.35 0.23-0.59 0.23c-0.23 0-0.42-0.08-0.57-0.25-0.16-0.15-0.25-0.34-0.25-0.56z"/><path d="m9.59 24.1c0-0.03 0.01-0.07 0.02-0.13s0.02-0.09 0.02-0.12l0.09-0.59c0.07-0.24 0.2-0.41 0.41-0.53s0.43-0.14 0.68-0.08c0.23 0.07 0.39 0.21 0.51 0.41 0.11 0.21 0.13 0.42 0.07 0.63l-0.14 0.6c-0.1 0.43-0.35 0.65-0.76 0.65-0.03 0-0.08 0-0.15-0.01s-0.11-0.01-0.13-0.01c-0.21-0.06-0.36-0.17-0.46-0.33-0.11-0.16-0.16-0.32-0.16-0.49z"/></g><path d="m24.21 14.5c0.44 0.76 0.66 1.58 0.66 2.45 0 1.34-0.46 2.49-1.39 3.45-0.93 0.97-2.06 1.47-3.39 1.51-0.12 0-0.19-0.06-0.19-0.19v-1.36c0-0.12 0.06-0.18 0.19-0.18 0.87-0.06 1.6-0.41 2.2-1.03s0.9-1.36 0.9-2.21c0-0.89-0.32-1.66-0.97-2.29s-1.42-0.95-2.33-0.95h-1.62c-0.11 0-0.17-0.06-0.17-0.18l-0.07-0.58c-0.11-1.07-0.58-1.98-1.4-2.71s-1.77-1.1-2.86-1.1-2.05 0.37-2.85 1.1c-0.81 0.73-1.27 1.64-1.37 2.72l-0.07 0.52c0 0.11-0.07 0.17-0.2 0.17l-0.53 0.07c-0.84 0.1-1.54 0.46-2.1 1.07-0.57 0.62-0.85 1.34-0.85 2.17v0.02l0.01 0.01h0.02c0 0.52 0.12 1.02 0.36 1.48s0.56 0.84 0.97 1.14h0.01l0.02 0.02c0.22 0.16 0.42 0.27 0.62 0.35 0.34 0.15 0.69 0.23 1.07 0.24 0.11 0 0.17 0.06 0.17 0.17v1.34c0 0.12-0.06 0.18-0.17 0.18-0.93-0.04-1.78-0.32-2.55-0.82h-0.01c-0.66-0.43-1.19-0.99-1.59-1.69s-0.61-1.45-0.64-2.26v-0.37c0.04-1.12 0.42-2.11 1.13-2.97s1.61-1.42 2.68-1.67c0.31-1.36 1.02-2.48 2.11-3.36s2.35-1.31 3.76-1.31c0.74 0 1.53 0.15 2.38 0.46l1.44 0.91c1.04 0.85 1.7 1.9 1.98 3.16h0.33c1.23 0 2.3 0.39 3.22 1.18" fill="#fff"/>
<path d="m23.107 13.165c0.42997 0.1638 0.59-0.65 0.76-1.04-0.62-0.3-1.15-0.7-1.61-1.21-0.45-0.51-0.79-1.06-1.02-1.66s-0.34-1.22-0.34-1.86v-0.3h-0.22c-0.62 0-1.21 0.15-1.77 0.45s-1 0.73-1.33 1.28l-1.44-0.91c0.28-0.46 0.61-0.86 0.99-1.2 0.38-0.34 0.77-0.6 1.18-0.79 0.41-0.18 0.8-0.32 1.19-0.4 0.38-0.08 0.76-0.12 1.13-0.12 0.39 0 0.8 0.04 1.24 0.13l0.8 0.25c0.12 0.06 0.17 0.13 0.14 0.23l-0.12 0.62c-0.07 0.29-0.1 0.57-0.1 0.84 0 0.31 0.05 0.62 0.15 0.95 0.1 0.32 0.24 0.64 0.44 0.95s0.46 0.59 0.8 0.85 0.72 0.45 1.16 0.58l0.62 0.17c0.1 0.03 0.15 0.08 0.15 0.16 0 0.04 0 0.06-0.01 0.07l-0.19 0.68c-0.24 1.01-0.75 1.89-1.51 2.62" fill="#2a0134"/></svg>
